<mxfile host="app.diagrams.net" modified="2023-10-27T19:38:34.870Z" agent="Mozilla/5.0 (Windows NT 10.0; Win64; x64) AppleWebKit/537.36 (KHTML, like Gecko) Chrome/118.0.0.0 Safari/537.36" etag="7r-KamsN-Tn2j2iUmh5t" version="22.0.8" type="device">
  <diagram name="Page-1" id="RrLPheX8d8NQCvYSbs5s">
    <mxGraphModel dx="1354" dy="679" grid="1" gridSize="10" guides="1" tooltips="1" connect="1" arrows="1" fold="1" page="1" pageScale="1" pageWidth="850" pageHeight="1100" math="0" shadow="0">
      <root>
        <mxCell id="0" />
        <mxCell id="1" parent="0" />
        <mxCell id="CDe0pk14_aHs1qKDfNVg-1" value="Product" style="rounded=0;whiteSpace=wrap;html=1;" parent="1" vertex="1">
          <mxGeometry x="270" y="280" width="120" height="60" as="geometry" />
        </mxCell>
        <mxCell id="CDe0pk14_aHs1qKDfNVg-2" value="Cateogry" style="rounded=0;whiteSpace=wrap;html=1;" parent="1" vertex="1">
          <mxGeometry x="110" y="480" width="120" height="60" as="geometry" />
        </mxCell>
        <mxCell id="CDe0pk14_aHs1qKDfNVg-14" style="edgeStyle=orthogonalEdgeStyle;rounded=0;orthogonalLoop=1;jettySize=auto;html=1;entryX=1;entryY=0;entryDx=0;entryDy=0;" parent="1" source="CDe0pk14_aHs1qKDfNVg-5" target="CDe0pk14_aHs1qKDfNVg-1" edge="1">
          <mxGeometry relative="1" as="geometry">
            <Array as="points">
              <mxPoint x="410" y="80" />
              <mxPoint x="410" y="280" />
            </Array>
          </mxGeometry>
        </mxCell>
        <mxCell id="CDe0pk14_aHs1qKDfNVg-5" value="StartDate" style="ellipse;whiteSpace=wrap;html=1;" parent="1" vertex="1">
          <mxGeometry x="400" y="60" width="90" height="60" as="geometry" />
        </mxCell>
        <mxCell id="CDe0pk14_aHs1qKDfNVg-13" style="edgeStyle=orthogonalEdgeStyle;rounded=0;orthogonalLoop=1;jettySize=auto;html=1;entryX=0.5;entryY=0;entryDx=0;entryDy=0;" parent="1" source="CDe0pk14_aHs1qKDfNVg-6" target="CDe0pk14_aHs1qKDfNVg-1" edge="1">
          <mxGeometry relative="1" as="geometry" />
        </mxCell>
        <mxCell id="CDe0pk14_aHs1qKDfNVg-6" value="CreationDate" style="ellipse;whiteSpace=wrap;html=1;" parent="1" vertex="1">
          <mxGeometry x="290" y="70" width="90" height="60" as="geometry" />
        </mxCell>
        <mxCell id="CDe0pk14_aHs1qKDfNVg-7" value="Price" style="ellipse;whiteSpace=wrap;html=1;" parent="1" vertex="1">
          <mxGeometry x="150" y="100" width="90" height="60" as="geometry" />
        </mxCell>
        <mxCell id="CDe0pk14_aHs1qKDfNVg-11" style="edgeStyle=orthogonalEdgeStyle;rounded=0;orthogonalLoop=1;jettySize=auto;html=1;entryX=0;entryY=0.5;entryDx=0;entryDy=0;" parent="1" source="CDe0pk14_aHs1qKDfNVg-8" target="CDe0pk14_aHs1qKDfNVg-1" edge="1">
          <mxGeometry relative="1" as="geometry" />
        </mxCell>
        <mxCell id="CDe0pk14_aHs1qKDfNVg-8" value="Name" style="ellipse;whiteSpace=wrap;html=1;" parent="1" vertex="1">
          <mxGeometry x="100" y="180" width="90" height="50" as="geometry" />
        </mxCell>
        <mxCell id="CDe0pk14_aHs1qKDfNVg-15" style="edgeStyle=orthogonalEdgeStyle;rounded=0;orthogonalLoop=1;jettySize=auto;html=1;exitX=0;exitY=0.5;exitDx=0;exitDy=0;" parent="1" source="CDe0pk14_aHs1qKDfNVg-9" edge="1">
          <mxGeometry relative="1" as="geometry">
            <mxPoint x="390" y="300" as="targetPoint" />
            <Array as="points">
              <mxPoint x="431" y="140" />
              <mxPoint x="431" y="290" />
              <mxPoint x="390" y="290" />
            </Array>
          </mxGeometry>
        </mxCell>
        <mxCell id="CDe0pk14_aHs1qKDfNVg-9" value="Duration" style="ellipse;whiteSpace=wrap;html=1;" parent="1" vertex="1">
          <mxGeometry x="510" y="110" width="100" height="60" as="geometry" />
        </mxCell>
        <mxCell id="CDe0pk14_aHs1qKDfNVg-16" style="edgeStyle=orthogonalEdgeStyle;rounded=0;orthogonalLoop=1;jettySize=auto;html=1;entryX=1;entryY=0.75;entryDx=0;entryDy=0;" parent="1" source="CDe0pk14_aHs1qKDfNVg-10" target="CDe0pk14_aHs1qKDfNVg-1" edge="1">
          <mxGeometry relative="1" as="geometry">
            <Array as="points">
              <mxPoint x="465" y="230" />
              <mxPoint x="465" y="310" />
              <mxPoint x="390" y="310" />
            </Array>
          </mxGeometry>
        </mxCell>
        <mxCell id="CDe0pk14_aHs1qKDfNVg-10" value="UserID" style="ellipse;whiteSpace=wrap;html=1;" parent="1" vertex="1">
          <mxGeometry x="500" y="220" width="90" height="70" as="geometry" />
        </mxCell>
        <mxCell id="CDe0pk14_aHs1qKDfNVg-12" style="edgeStyle=orthogonalEdgeStyle;rounded=0;orthogonalLoop=1;jettySize=auto;html=1;entryX=0.11;entryY=-0.036;entryDx=0;entryDy=0;entryPerimeter=0;" parent="1" source="CDe0pk14_aHs1qKDfNVg-7" target="CDe0pk14_aHs1qKDfNVg-1" edge="1">
          <mxGeometry relative="1" as="geometry" />
        </mxCell>
        <mxCell id="CDe0pk14_aHs1qKDfNVg-20" style="edgeStyle=orthogonalEdgeStyle;rounded=0;orthogonalLoop=1;jettySize=auto;html=1;exitX=0.5;exitY=1;exitDx=0;exitDy=0;entryX=1;entryY=0.5;entryDx=0;entryDy=0;" parent="1" source="CDe0pk14_aHs1qKDfNVg-19" target="CDe0pk14_aHs1qKDfNVg-2" edge="1">
          <mxGeometry relative="1" as="geometry" />
        </mxCell>
        <mxCell id="CDe0pk14_aHs1qKDfNVg-19" value="Contain" style="rhombus;whiteSpace=wrap;html=1;" parent="1" vertex="1">
          <mxGeometry x="280" y="390" width="90" height="80" as="geometry" />
        </mxCell>
        <mxCell id="CDe0pk14_aHs1qKDfNVg-21" style="edgeStyle=orthogonalEdgeStyle;rounded=0;orthogonalLoop=1;jettySize=auto;html=1;entryX=0.353;entryY=1.061;entryDx=0;entryDy=0;entryPerimeter=0;" parent="1" source="CDe0pk14_aHs1qKDfNVg-19" target="CDe0pk14_aHs1qKDfNVg-1" edge="1">
          <mxGeometry relative="1" as="geometry" />
        </mxCell>
        <mxCell id="CDe0pk14_aHs1qKDfNVg-22" value="&lt;u&gt;ID&lt;/u&gt;" style="ellipse;whiteSpace=wrap;html=1;" parent="1" vertex="1">
          <mxGeometry x="50" y="350" width="90" height="50" as="geometry" />
        </mxCell>
        <mxCell id="CDe0pk14_aHs1qKDfNVg-23" style="edgeStyle=orthogonalEdgeStyle;rounded=0;orthogonalLoop=1;jettySize=auto;html=1;entryX=0.443;entryY=-0.008;entryDx=0;entryDy=0;entryPerimeter=0;" parent="1" source="CDe0pk14_aHs1qKDfNVg-22" target="CDe0pk14_aHs1qKDfNVg-2" edge="1">
          <mxGeometry relative="1" as="geometry" />
        </mxCell>
        <mxCell id="CDe0pk14_aHs1qKDfNVg-25" style="edgeStyle=orthogonalEdgeStyle;rounded=0;orthogonalLoop=1;jettySize=auto;html=1;entryX=0.5;entryY=1;entryDx=0;entryDy=0;" parent="1" source="CDe0pk14_aHs1qKDfNVg-24" target="CDe0pk14_aHs1qKDfNVg-2" edge="1">
          <mxGeometry relative="1" as="geometry" />
        </mxCell>
        <mxCell id="CDe0pk14_aHs1qKDfNVg-24" value="Name" style="ellipse;whiteSpace=wrap;html=1;" parent="1" vertex="1">
          <mxGeometry x="10" y="570" width="100" height="50" as="geometry" />
        </mxCell>
        <mxCell id="CDe0pk14_aHs1qKDfNVg-26" value="1" style="text;html=1;strokeColor=none;fillColor=none;align=center;verticalAlign=middle;whiteSpace=wrap;rounded=0;" parent="1" vertex="1">
          <mxGeometry x="220" y="480" width="60" height="30" as="geometry" />
        </mxCell>
        <mxCell id="CDe0pk14_aHs1qKDfNVg-27" value="M" style="text;html=1;strokeColor=none;fillColor=none;align=center;verticalAlign=middle;whiteSpace=wrap;rounded=0;" parent="1" vertex="1">
          <mxGeometry x="260" y="340" width="60" height="30" as="geometry" />
        </mxCell>
        <mxCell id="CDe0pk14_aHs1qKDfNVg-34" style="edgeStyle=orthogonalEdgeStyle;rounded=0;orthogonalLoop=1;jettySize=auto;html=1;entryX=0;entryY=0.75;entryDx=0;entryDy=0;" parent="1" source="CDe0pk14_aHs1qKDfNVg-33" target="CDe0pk14_aHs1qKDfNVg-1" edge="1">
          <mxGeometry relative="1" as="geometry" />
        </mxCell>
        <mxCell id="CDe0pk14_aHs1qKDfNVg-33" value="&lt;u&gt;ID&lt;/u&gt;" style="ellipse;whiteSpace=wrap;html=1;" parent="1" vertex="1">
          <mxGeometry x="65" y="250" width="65" height="50" as="geometry" />
        </mxCell>
      </root>
    </mxGraphModel>
  </diagram>
</mxfile>
